PathFileType	4	(X/Y/Z)	D:\TRACE\spotREDO_2-26-24\spot_baseline_3-v60.trc
DataRate	CameraRate	NumFrames	NumMarkers	Units	OrigDataRate	OrigDataStartFrame	OrigNumFrames
100.00	100.00	      38	9	mm	100.00	6126	      7000
Frame#	Time	front left toe			Front right toe			aft left toe			aft right toe			Arm			FL body			FR body			AL Body			AR Body			
		X1	Y1	Z1	X2	Y2	Z2	X3	Y3	Z3	X4	Y4	Z4	X5	Y5	Z5	X6	Y6	Z6	X7	Y7	Z7	X8	Y8	Z8	X9	Y9	Z9	

6126	61.250	-211.57397	23.80996	-264.04620	363.08154	25.23565	-210.42406	-256.51846	24.62370	276.79947	313.43994	28.96371	328.25632	103.95637	806.81110	-382.92789	16.56029	548.26630	-365.66312	171.74992	551.60107	-354.63754	-56.71353	560.09338	515.64154	92.47147	558.45697	527.76019	
6127	61.260	-211.60263	23.80415	-263.99500	363.32495	25.66186	-210.02399	-256.49875	24.64925	276.86710	313.46057	28.98582	328.28262	104.12828	806.89227	-381.94690	16.59094	548.34790	-364.63126	171.82597	551.44360	-353.47906	-56.61919	560.14569	516.53680	92.77143	558.39319	528.58978	
6128	61.270	-211.55515	23.84840	-263.95404	363.33795	26.25876	-209.65846	-256.42053	24.67015	276.95483	313.48071	28.95500	328.32385	104.31865	806.95703	-381.04245	16.84137	548.42688	-363.79901	172.01762	551.51544	-352.70728	-56.13931	560.17822	517.91864	93.01080	558.36871	529.64746	
6129	61.280	-211.53329	23.86364	-263.89160	363.35828	26.27397	-209.56331	-256.39996	24.71394	277.01874	313.45590	28.90018	328.36197	104.76341	807.02869	-379.97931	17.07001	548.44342	-362.69983	172.10724	551.53015	-351.60928	-55.86456	560.13605	518.88208	93.16639	558.28418	530.57312	
6130	61.290	-211.46271	23.85788	-263.84470	363.25818	26.23569	-209.54884	-256.31976	24.69110	277.09726	313.48630	28.89605	328.35275	104.91611	806.92560	-379.19156	17.27841	548.59387	-361.97226	172.42876	551.51740	-350.62363	-55.92640	560.17053	519.67267	93.33934	558.28461	531.69568	
6131	61.300	-211.47000	23.88745	-263.81412	363.37027	26.27386	-209.42657	-256.30722	24.76683	277.13031	313.43918	28.85280	328.38681	105.19876	806.86316	-377.94073	17.42579	548.62878	-360.72174	172.54474	551.47614	-349.63846	-55.01817	560.09314	520.89728	93.72571	558.21008	532.56189	
6132	61.310	-211.49603	23.93017	-263.80011	363.47061	26.35516	-209.31630	-256.23795	24.70574	277.17001	313.45868	28.80322	328.40607	105.46265	806.86255	-377.11813	17.71330	548.62799	-359.96512	173.04602	551.52411	-348.58911	-54.95499	560.10291	521.82062	94.04705	558.11646	533.67737	
6133	61.320	-211.49251	23.93865	-263.77240	363.47485	26.40488	-209.30951	-256.25775	24.74039	277.19144	313.52209	28.86901	328.46436	105.97584	806.86987	-375.93250	17.87283	548.57672	-358.78015	172.87660	551.64801	-348.04340	-55.04636	560.08398	522.53888	94.32873	558.03735	534.45734	
6134	61.330	-211.48347	23.96723	-263.75684	363.58478	26.42807	-209.22182	-256.27942	24.81246	277.16568	313.53534	28.92777	328.53244	106.32087	806.95935	-375.10089	17.94049	548.66296	-357.76974	173.27058	551.33734	-346.55252	-54.57866	560.21509	523.74475	94.66603	557.95776	535.60034	
6135	61.340	-211.46700	23.96800	-263.71384	363.47104	26.33652	-209.21561	-256.30701	24.82477	277.21402	313.44733	28.81802	328.54706	106.74949	806.74329	-373.84323	17.67427	548.86957	-357.35413	173.43098	551.17786	-345.80545	-54.09934	560.22308	524.94934	94.62093	557.93903	536.45966	
6136	61.350	-211.47772	23.98683	-263.68692	363.32126	26.23847	-209.15695	-256.24387	24.77705	277.24643	313.47037	28.80061	328.59845	106.90376	806.75385	-373.08670	18.48462	548.63898	-355.87036	173.93040	551.02850	-344.57162	-54.12973	560.22754	525.46393	94.99336	557.98529	537.58929	
6137	61.360	-211.44913	23.94094	-263.63916	363.28439	26.13858	-209.07727	-256.24109	24.77612	277.22916	313.38403	28.73781	328.63870	107.09962	806.71594	-372.07828	18.55489	548.70007	-354.82150	174.10716	550.99384	-343.74600	-54.01697	560.23560	526.65112	95.02161	557.94580	538.61420	
6138	61.370	-211.44124	23.97421	-263.61148	364.71106	27.14866	-208.39024	-256.25558	24.85732	277.25214	313.44159	28.78882	328.66306	107.68197	806.66602	-371.12680	18.87447	548.68335	-353.83356	174.36394	550.89264	-342.56970	-53.77627	560.28619	527.70862	95.27122	557.96716	539.61438	
6139	61.380	-211.35954	23.98803	-263.58099	363.54175	26.27490	-208.82922	-256.18439	24.84339	277.22122	313.44699	28.79451	328.71130	108.15867	806.73779	-370.00311	19.25117	548.57776	-352.76828	174.59033	550.94000	-341.68985	-53.49405	560.39569	528.88202	95.53131	557.84912	540.57697	
6140	61.390	-211.37579	23.96682	-263.54895	363.50607	26.25398	-208.79460	-256.23669	24.87502	277.26178	313.45483	28.79720	328.74933	108.59917	806.74426	-368.93134	19.44717	548.60461	-351.71808	174.76724	550.93134	-340.54553	-53.26440	560.40393	529.54596	95.72128	557.76477	541.72083	
6141	61.400	-211.42363	23.88055	-263.48386	363.56378	26.27183	-208.71748	-256.23523	24.90656	277.29730	313.41956	28.76624	328.80646	108.89574	806.71521	-367.90750	19.74344	548.63037	-350.58179	174.98225	550.91541	-339.53833	-52.66117	560.45905	531.00403	96.19353	557.72522	542.63995	
6142	61.410	-210.51317	26.05922	-262.88269	363.43182	25.71900	-208.46689	-256.62463	24.44666	277.66129	313.41696	28.81811	328.85962	109.58472	806.60052	-366.71365	20.04220	548.47076	-349.55737	175.31882	550.94617	-338.40067	-52.53262	560.54681	531.98077	96.34422	557.69305	543.80127	
6143	61.420	-208.82060	33.92260	-259.09445	363.66745	25.53698	-208.24651	-256.40393	24.26385	277.50949	313.44394	28.70698	329.31815	108.98775	806.72943	-365.98434	20.68424	548.20831	-348.63892	175.86314	550.97046	-337.56470	-52.95360	560.33929	532.55945	96.35155	557.85217	544.55554	
6144	61.430	-206.43880	44.43633	-252.98346	364.01602	25.24523	-208.24254	-256.02206	24.49274	277.33887	313.51816	28.78319	329.25082	108.37856	806.39746	-365.29111	20.87023	548.07813	-348.48944	176.51852	550.97394	-336.54004	-52.54274	560.28577	533.63531	96.38809	558.11462	545.65356	
6145	61.440	-205.27730	55.68419	-248.55118	365.13937	26.10716	-207.61568	-255.74715	24.59011	277.34000	313.61230	28.83079	329.57642	108.23076	806.02625	-364.47195	21.55499	547.30646	-347.01083	176.93559	550.70209	-335.73788	-52.29325	560.38257	534.39093	96.68143	558.48358	546.47815	
6146	61.450	-205.85446	66.87754	-248.29866	363.74124	25.15984	-208.23851	-255.66568	24.80960	277.49188	313.68918	28.83171	329.61993	108.41610	805.62811	-363.97781	21.42694	547.12213	-346.29691	176.79837	550.63995	-335.15756	-52.17696	560.69281	535.51270	97.46011	558.75214	547.60590	
6147	61.460	-205.05678	78.36823	-251.24646	363.50507	25.23620	-208.29547	-255.63200	24.91340	277.58945	313.70691	28.78599	329.47885	108.43116	805.45923	-363.33035	21.56903	546.61395	-345.00937	176.75226	550.38324	-334.06924	-51.33607	560.61957	536.08734	97.81232	558.79144	548.18158	
6148	61.470	-204.06642	90.62583	-254.41801	364.51273	26.36076	-207.74507	-255.68257	24.88723	277.57758	313.72592	28.71502	329.52478	108.46285	805.35461	-362.31363	21.31527	546.72351	-344.41263	176.56802	550.35712	-333.39230	-50.61058	560.53516	537.43298	98.53073	558.68237	549.30206	
6149	61.480	-200.66110	101.39422	-254.71346	364.47842	26.45080	-207.70816	-255.64465	24.92739	277.59991	313.93787	28.75130	329.47751	108.30489	805.48456	-361.46634	21.10249	546.95825	-343.61362	176.68420	550.44159	-332.65585	-50.46884	560.44342	537.99512	98.80139	558.51440	550.00262	
6150	61.490	-198.41431	110.71970	-252.06715	364.48141	26.49933	-207.74509	-255.67386	24.93352	277.62012	313.95990	28.72714	329.61884	108.19825	805.71307	-360.58636	21.43140	546.87952	-342.68243	176.80597	550.59894	-331.84793	-48.93499	560.15607	538.77905	98.69216	558.30292	550.48669	
6151	61.500	-196.43741	119.28165	-247.98323	363.57547	25.63559	-208.15697	-255.70364	24.92001	277.64172	314.04956	28.74957	329.77640	107.53982	805.92688	-359.83530	21.51872	547.02289	-342.19122	176.70604	550.73309	-331.53369	-48.34663	559.87683	539.91309	98.67121	558.17853	551.10339	
6152	61.510	-195.12239	127.28341	-244.27029	364.71686	26.50708	-207.57924	-255.71756	24.92719	277.69183	313.97150	28.81318	329.89352	107.82978	805.84784	-359.09558	21.40041	547.15906	-341.56870	176.65886	550.69849	-330.63202	-48.27800	559.74426	540.86945	98.56472	557.86945	551.80780	
6153	61.520	-194.45598	133.94191	-241.96573	364.62866	26.46220	-207.58260	-255.68065	24.94820	277.67465	313.99850	28.91811	329.98743	108.06951	805.78046	-358.49930	21.46008	546.97748	-340.72675	176.91444	550.55902	-329.71802	-48.92747	559.51447	540.91174	98.48464	557.74982	552.54016	
6154	61.530	-193.39281	138.79245	-241.09370	364.57629	26.42360	-207.51341	-255.70697	24.99391	277.67847	313.86420	28.84223	330.06592	108.40820	805.65210	-357.94604	21.60041	546.79181	-339.98547	176.75829	550.49799	-329.17758	-48.23296	559.73462	541.88074	98.55192	557.66760	553.19470	
6155	61.540	-191.87357	141.75496	-240.97401	364.47421	26.51499	-207.51447	-255.66380	24.94720	277.71597	313.96585	28.89652	330.07852	108.89084	805.61023	-357.10202	21.48452	546.92456	-339.42847	176.61481	550.54651	-328.70670	-48.01598	559.76544	543.03540	98.60242	557.67615	553.80280	
6156	61.550	-189.63632	142.18848	-239.69040	364.55566	26.63646	-207.50470	-255.72011	24.96552	277.78357	313.88678	28.87799	330.10751	108.73955	805.71771	-356.37720	21.44059	547.14496	-338.91348	176.91162	550.63361	-327.76099	-49.29359	559.44635	542.83136	98.45181	557.64764	554.61389	
6157	61.560	-187.28236	140.82707	-237.19289	364.57990	26.57213	-207.42825	-255.71558	24.93758	277.73801	313.76297	28.81910	330.11621	108.46576	805.94928	-355.56635	21.63737	547.25177	-338.35236	177.02173	550.66644	-327.37064	-49.47006	559.36078	543.28552	98.16567	557.55792	555.02972	
6158	61.570	-185.15366	138.84125	-234.34282	364.60898	26.54014	-207.29628	-255.78470	24.92780	277.76309	313.72223	28.80916	330.07712	108.29174	805.98132	-355.26273	22.01461	547.07404	-337.57614	177.07607	550.89807	-326.61804	-48.87936	559.26556	544.66455	97.88326	557.36127	555.59119	
6159	61.580	-183.44513	137.79355	-230.82430	364.65384	26.37926	-207.24217	-255.83243	24.89980	277.81519	313.65210	28.77021	330.12741	108.22782	805.97357	-354.53995	21.95551	546.98395	-337.13904	177.28381	550.96912	-325.92468	-49.23933	559.23938	544.98596	98.07584	557.28204	556.70642	
6160	61.590	-181.89108	137.00652	-227.26660	364.79153	26.38336	-207.16112	-255.94089	24.87776	277.80273	313.69479	28.79541	330.12744	108.25934	805.77673	-353.82715	21.85577	546.80841	-336.76895	177.37666	550.83807	-325.43936	-50.19730	558.87653	544.82111	97.48724	557.25873	556.85388	
6161	61.600	-180.55029	136.94170	-224.93494	364.67065	26.41441	-207.10323	-255.91711	24.88218	277.83154	313.70227	28.81848	330.16251	108.13881	805.56598	-353.49493	21.75403	546.57758	-336.34372	177.29807	550.69214	-324.97778	-49.52928	558.90363	545.92175	97.25632	557.26917	557.19257	
6162	61.610	-179.07794	137.41861	-223.13191	364.71835	26.32199	-207.09030	-256.04761	24.91235	277.87140	313.70609	28.80161	330.15936	108.08698	805.52252	-353.22726	21.86968	546.42816	-335.71176	177.11935	550.45135	-324.44470	-49.55560	558.79352	546.53394	97.17764	557.14160	557.61035	
6163	61.620	-177.21585	137.14281	-221.00975	364.59268	26.33434	-207.07579	-256.05176	24.85638	277.90790	313.59433	28.76954	330.15845	108.03067	805.44476	-352.64462	21.81555	546.24402	-335.13245	176.86465	550.43469	-323.98462	-52.25944	558.28571	546.14227	97.03806	557.02069	558.06934	
